#Comment line ignore any data following # character 
#Hierarchical Translation and Rotation (.htr) file 
[Header]	
#Header keywords are followed by a single value 
FileType HTR		#Single word string
DataType HTRS		#Translation followed by rotation and scale data
FileVersion 1		#integer
NumSegments 25		#integer
NumFrames 4		#integer
DataFrameRate 30		#integer, data frame rate in this file
EulerRotationOrder ZYX
CalibrationUnits mm
RotationUnits Degrees
GlobalAxisofGravity Y
BoneLengthAxis Y
ScaleFactor 1.00
[SegmentNames&Hierarchy]
#CHILD	PARENT
BN_Tick_Root GLOBAL
BN_Torso BN_Tick_Root
BN_L_Leg_Front01 BN_Torso
BN_L_Leg_Rear01 BN_Torso
BN_MetalTop BN_Torso
BN_Neck BN_Torso
BN_R_Leg_Front01 BN_Torso
BN_R_Leg_Rear01 BN_Torso
BN_Sack BN_Torso
BN_L_Leg_Front02 BN_L_Leg_Front01
BN_L_Leg_Front03 BN_L_Leg_Front02
BN_L_Leg_Rear02 BN_L_Leg_Rear01
BN_L_Leg_Rear03 BN_L_Leg_Rear02
BN_Head BN_Neck
BN_Needle BN_Head
BN_R_Leg_Front02 BN_R_Leg_Front01
BN_R_Leg_Front03 BN_R_Leg_Front02
BN_R_Leg_Rear02 BN_R_Leg_Rear01
BN_R_Leg_Rear03 BN_R_Leg_Rear02
BN_SackDef01 BN_Sack
BN_SackDef02 BN_Sack
BN_SackDef03 BN_Sack
BN_SackDef04 BN_Sack
BN_SackDef05 BN_Sack
BN_SackDef06 BN_Sack
[BasePosition]
#SegmentName Tx, Ty, Tz, Rx, Ry, Rz, BoneLength
BN_Tick_Root 0.000000 0.000000 0.000000 -90.000000 0.000000 0.000000 10.000000 
BN_Torso 0.000000 0.000000 0.000000 0.000000 0.000000 0.000000 10.000000 
BN_L_Leg_Front01 0.000000 0.000000 0.000000 0.000000 0.000000 0.000000 10.000000 
BN_L_Leg_Rear01 0.000000 0.000000 0.000000 0.000000 0.000000 0.000000 10.000000 
BN_MetalTop 0.000000 0.000000 0.000000 0.000000 0.000000 0.000000 10.000000 
BN_Neck 0.000000 0.000000 0.000000 0.000000 0.000000 0.000000 10.000000 
BN_R_Leg_Front01 0.000000 0.000000 0.000000 0.000000 0.000000 0.000000 10.000000 
BN_R_Leg_Rear01 0.000000 0.000000 0.000000 0.000000 0.000000 0.000000 10.000000 
BN_Sack 0.000000 0.000000 0.000000 0.000000 0.000000 0.000000 10.000000 
BN_L_Leg_Front02 0.000000 0.000000 0.000000 0.000000 0.000000 0.000000 10.000000 
BN_L_Leg_Front03 0.000000 0.000000 0.000000 0.000000 0.000000 0.000000 10.000000 
BN_L_Leg_Rear02 0.000000 0.000000 0.000000 0.000000 0.000000 0.000000 10.000000 
BN_L_Leg_Rear03 0.000000 0.000000 0.000000 0.000000 0.000000 0.000000 10.000000 
BN_Head 0.000000 0.000000 0.000000 0.000000 0.000000 0.000000 10.000000 
BN_Needle 0.000000 0.000000 0.000000 0.000000 0.000000 0.000000 10.000000 
BN_R_Leg_Front02 0.000000 0.000000 0.000000 0.000000 0.000000 0.000000 10.000000 
BN_R_Leg_Front03 0.000000 0.000000 0.000000 0.000000 0.000000 0.000000 10.000000 
BN_R_Leg_Rear02 0.000000 0.000000 0.000000 0.000000 0.000000 0.000000 10.000000 
BN_R_Leg_Rear03 0.000000 0.000000 0.000000 0.000000 0.000000 0.000000 10.000000 
BN_SackDef01 0.000000 0.000000 0.000000 0.000000 0.000000 0.000000 10.000000 
BN_SackDef02 0.000000 0.000000 0.000000 0.000000 0.000000 0.000000 10.000000 
BN_SackDef03 0.000000 0.000000 0.000000 0.000000 0.000000 0.000000 10.000000 
BN_SackDef04 0.000000 0.000000 0.000000 0.000000 0.000000 0.000000 10.000000 
BN_SackDef05 0.000000 0.000000 0.000000 0.000000 0.000000 0.000000 10.000000 
BN_SackDef06 0.000000 0.000000 0.000000 0.000000 0.000000 0.000000 10.000000 
#Beginning of Data. Separated by tabs
#Fr	Tx	Ty	Tz	Rx	Ry	Rz	SF
[BN_Tick_Root]
470 0.000000 0.000000 0.000000 0.000000 0.000000 -0.000020 0.000000
471 0.000000 0.000000 0.000000 0.000000 0.000000 -0.000020 0.000000
472 0.000000 0.000000 0.000000 0.000000 0.000000 -0.000020 0.000000
473 0.000000 0.000000 0.000000 0.000000 0.000000 -0.000020 0.000000
[BN_Torso]
470 -99.572144 -613.577393 600.224670 37.147152 0.133706 -172.882706 864.095764
471 -99.490013 -634.052979 602.755859 37.147152 0.133706 -172.882706 880.474915
472 -99.517395 -654.330566 606.579163 37.147152 0.133706 -172.882706 897.769714
473 -99.544785 -674.608337 610.402710 37.147152 0.133706 -172.882706 915.203247
[BN_L_Leg_Front01]
470 -68.477791 10.734189 -26.804373 47.749840 49.004173 -108.325478 74.316254
471 -68.477791 10.734189 -26.804373 41.676174 47.037281 -104.787727 74.316254
472 -68.477791 10.734189 -26.804373 34.289764 45.503819 -101.597733 74.316254
473 -68.477791 10.734189 -26.804373 26.328220 44.394108 -99.078072 74.316254
[BN_L_Leg_Rear01]
470 -72.133743 -73.994843 -18.268616 93.556969 25.832796 -119.156883 104.939293
471 -72.133743 -73.994843 -18.268616 92.042267 23.819992 -118.464767 104.939293
472 -72.133743 -73.994843 -18.268616 90.756310 22.029730 -117.785477 104.939293
473 -72.133743 -73.994843 -18.268616 89.687805 20.499247 -117.165802 104.939293
[BN_MetalTop]
470 0.000008 13.737477 26.403606 76.853928 -31.063332 -94.616234 29.763546
471 0.000008 13.737477 26.403606 76.853943 -31.063343 -94.616241 29.763546
472 0.000008 13.737477 26.403606 76.853928 -31.063332 -94.616234 29.763546
473 0.000008 13.737477 26.403606 76.853928 -31.063332 -94.616234 29.763546
[BN_Neck]
470 0.000014 95.233284 10.002091 -89.999672 -65.297531 89.999657 95.757088
471 0.000014 95.233284 10.002091 -89.999672 -65.297531 89.999657 95.757088
472 0.000014 95.233284 10.002091 -89.999672 -65.297531 89.999657 95.757088
473 0.000014 95.233284 10.002091 -89.999672 -65.297531 89.999657 95.757088
[BN_R_Leg_Front01]
470 68.477768 10.734107 -26.804314 -179.148254 61.366150 -85.944344 74.316193
471 68.477768 10.734107 -26.804314 172.812592 60.171509 -81.242676 74.316193
472 68.477768 10.734107 -26.804314 153.583588 61.431507 -78.585091 74.316193
473 68.477768 10.734107 -26.804314 101.521248 64.732895 -90.938332 74.316193
[BN_R_Leg_Rear01]
470 72.133751 -73.994873 -18.268644 -73.211578 17.605030 -79.476822 104.939331
471 72.133751 -73.994873 -18.268644 -72.671013 15.898650 -80.028839 104.939331
472 72.133751 -73.994873 -18.268644 -72.207016 14.418061 -80.547379 104.939331
473 72.133751 -73.994873 -18.268644 -71.817657 13.178778 -81.008049 104.939331
[BN_Sack]
470 -0.000000 -78.024918 33.657791 93.677826 2.003214 -99.826187 84.974907
471 -0.000000 -78.024918 33.657791 93.677826 2.003214 -99.826195 84.974907
472 -0.000000 -78.024918 33.657791 93.677818 2.003218 -99.826180 84.974907
473 -0.000000 -78.024918 33.657791 93.677826 2.003214 -99.826195 84.974907
[BN_L_Leg_Front02]
470 142.805023 -0.000015 -0.000104 0.154734 0.410827 -103.761444 142.805023
471 142.805023 -0.000015 -0.000104 0.154441 0.410936 -103.843025 142.805023
472 142.805023 -0.000015 -0.000104 0.155157 0.398976 -103.004951 142.805023
473 142.805023 -0.000015 -0.000104 0.162017 0.382882 -101.429008 142.805023
[BN_L_Leg_Front03]
470 124.143021 -0.000045 0.000007 0.354833 -0.413336 112.618141 124.143021
471 124.143021 -0.000045 0.000007 0.354533 -0.413593 112.701202 124.143021
472 124.143021 -0.000045 0.000007 0.353587 -0.413645 111.825539 124.143021
473 124.143021 -0.000045 0.000007 0.350262 -0.420982 110.150932 124.143021
[BN_L_Leg_Rear02]
470 139.939041 0.000075 -0.000022 0.122875 -0.201080 81.296417 139.939041
471 139.939041 0.000075 -0.000022 0.134235 -0.184346 75.995865 139.939041
472 139.939041 0.000075 -0.000022 0.157065 -0.175004 70.262451 139.939041
473 139.939041 0.000075 -0.000022 0.171298 -0.156255 64.211830 139.939041
[BN_L_Leg_Rear03]
470 142.839615 0.000179 -0.000060 0.000138 -0.002343 -96.729698 142.839615
471 142.839615 0.000179 -0.000060 0.000010 0.002347 -89.517410 142.839615
472 142.839615 0.000179 -0.000060 0.000177 0.002341 -81.350281 142.839615
473 142.839615 0.000179 -0.000060 0.000359 0.002320 -72.412834 142.839615
[BN_Head]
470 57.062447 -0.000030 0.000000 11.433887 16.161217 79.306747 57.062447
471 57.062447 -0.000030 0.000000 11.433888 16.161219 79.306747 57.062447
472 57.062447 -0.000030 0.000000 11.433888 16.161219 79.306747 57.062447
473 57.062447 -0.000030 0.000000 11.433887 16.161219 79.306740 57.062447
[BN_Needle]
470 37.705231 172.886093 -0.000152 0.000003 0.000030 87.896805 176.949951
471 37.705231 172.886093 -0.000152 0.000003 0.000030 87.896805 176.949951
472 37.705231 172.886093 -0.000152 0.000003 0.000030 87.896805 176.949951
473 37.705231 172.886093 -0.000152 0.000003 0.000030 87.896805 176.949951
[BN_R_Leg_Front02]
470 142.804947 -0.000060 0.000060 34.320812 -65.868759 84.239830 142.804947
471 142.804947 -0.000060 0.000060 39.816856 -65.476601 78.126381 142.804947
472 142.804947 -0.000060 0.000060 48.854279 -64.182823 68.129631 142.804947
473 142.804947 -0.000060 0.000060 59.387363 -61.277576 56.507973 142.804947
[BN_R_Leg_Front03]
470 124.143005 -0.000060 -0.000156 -0.354240 -0.403873 -115.141647 124.143005
471 124.143005 -0.000060 -0.000156 -0.352315 -0.414972 -112.550217 124.143005
472 124.143005 -0.000060 -0.000156 -0.351028 -0.425517 -107.809219 124.143005
473 124.143005 -0.000060 -0.000156 -0.355037 -0.440177 -100.882408 124.143005
[BN_R_Leg_Rear02]
470 139.939011 -0.000149 0.000015 -0.132917 -0.194689 -78.039383 139.939011
471 139.939011 -0.000149 0.000015 -0.153050 -0.182114 -71.844391 139.939011
472 139.939011 -0.000149 0.000015 -0.171445 -0.160329 -65.124763 139.939011
473 139.939011 -0.000149 0.000015 -0.190248 -0.143041 -57.957039 139.939011
[BN_R_Leg_Rear03]
470 142.839417 0.000075 0.000119 0.002347 -0.000048 92.334671 142.839417
471 142.839417 0.000075 0.000119 0.002344 0.000130 83.637131 142.839417
472 142.839417 0.000075 0.000119 0.002324 0.000331 73.765274 142.839417
473 142.839417 0.000075 0.000119 0.002281 0.000552 62.783905 142.839417
[BN_SackDef01]
470 249.782272 -3.760844 42.949425 -128.408218 -44.374973 -11.740845 253.475800
471 249.782272 -3.760844 42.949425 -128.408218 -44.374973 -11.740845 253.475800
472 249.782272 -3.760844 42.949425 -128.408218 -44.374973 -11.740845 253.475800
473 249.782272 -3.760844 42.949425 -128.408218 -44.374973 -11.740845 253.475800
[BN_SackDef02]
470 138.789795 -62.131748 45.674385 32.077126 -27.375721 -88.781525 158.773758
471 138.789795 -62.131748 45.674385 32.077126 -27.375721 -88.781525 158.773758
472 138.789795 -62.131748 45.674385 32.077126 -27.375721 -88.781525 158.773758
473 138.789795 -62.131748 45.674385 32.077126 -27.375721 -88.781525 158.773758
[BN_SackDef03]
470 249.782272 -3.760785 -42.949661 18.144459 44.375008 -11.740894 253.475845
471 249.782272 -3.760785 -42.949661 18.144459 44.375008 -11.740894 253.475845
472 249.782272 -3.760785 -42.949661 18.144459 44.375008 -11.740894 253.475845
473 249.782272 -3.760785 -42.949661 18.144459 44.375008 -11.740894 253.475845
[BN_SackDef04]
470 138.789780 -62.131645 -45.674473 146.059982 27.375723 -88.781555 158.773743
471 138.789780 -62.131645 -45.674473 146.059982 27.375723 -88.781555 158.773743
472 138.789780 -62.131645 -45.674473 146.059982 27.375723 -88.781555 158.773743
473 138.789780 -62.131645 -45.674473 146.059982 27.375723 -88.781555 158.773743
[BN_SackDef05]
470 118.790161 46.167137 -63.831196 0.155741 51.314110 90.605110 142.537460
471 118.790161 46.167137 -63.831196 0.155741 51.314110 90.605110 142.537460
472 118.790161 46.167137 -63.831196 0.155741 51.314110 90.605110 142.537460
473 118.790161 46.167137 -63.831196 0.155741 51.314110 90.605110 142.537460
[BN_SackDef06]
470 118.790207 46.167194 63.831219 152.058487 -51.314072 90.605019 142.537537
471 118.790207 46.167194 63.831219 152.058487 -51.314072 90.605019 142.537537
472 118.790207 46.167194 63.831219 152.058487 -51.314072 90.605019 142.537537
473 118.790207 46.167194 63.831219 152.058487 -51.314072 90.605019 142.537537
